<svg xmlns="http://www.w3.org/2000/svg" xmlns:xlink="http://www.w3.org/1999/xlink" contentStyleType="text/css" height="604px" preserveAspectRatio="none" style="width:728px;height:604px;background:#FFFFFF;" version="1.1" viewBox="0 0 728 604" width="728px" zoomAndPan="magnify"><defs/><g><!--class Slot--><g id="elem_Slot"><rect codeLine="4" fill="#F1F1F1" height="188.9688" id="Slot" rx="2.5" ry="2.5" style="stroke:#181818;stroke-width:0.5;" width="202.292" x="290.81" y="408.56"/><text fill="#000000" font-family="Arial" font-size="14" lengthAdjust="spacing" textLength="26.8311" x="378.5405" y="426.5551">Slot</text><line style="stroke:#181818;stroke-width:0.5;" x1="291.81" x2="492.102" y1="434.8569" y2="434.8569"/><ellipse cx="301.81" cy="448.5053" fill="#000000" rx="3" ry="3" style="stroke:#000000;stroke-width:1.0;"/><text fill="#000000" font-family="Arial" font-size="14" lengthAdjust="spacing" textLength="87.5547" x="310.81" y="451.852">_id: ObjectId</text><ellipse cx="301.81" cy="464.8022" fill="#000000" rx="3" ry="3" style="stroke:#000000;stroke-width:1.0;"/><text fill="#000000" font-family="Arial" font-size="14" lengthAdjust="spacing" textLength="78.3193" x="310.81" y="468.1489">title: String</text><ellipse cx="301.81" cy="481.0991" fill="#000000" rx="3" ry="3" style="stroke:#000000;stroke-width:1.0;"/><text fill="#000000" font-family="Arial" font-size="14" lengthAdjust="spacing" textLength="106.7979" x="310.81" y="484.4457">speaker: String</text><ellipse cx="301.81" cy="497.3959" fill="#000000" rx="3" ry="3" style="stroke:#000000;stroke-width:1.0;"/><text fill="#000000" font-family="Arial" font-size="14" lengthAdjust="spacing" textLength="89.7832" x="310.81" y="500.7426">notes: String</text><ellipse cx="301.81" cy="513.6928" fill="#000000" rx="3" ry="3" style="stroke:#000000;stroke-width:1.0;"/><text fill="#000000" font-family="Arial" font-size="14" lengthAdjust="spacing" textLength="144.6484" x="310.81" y="517.0395">startType: StartType</text><ellipse cx="301.81" cy="529.9897" fill="#000000" rx="3" ry="3" style="stroke:#000000;stroke-width:1.0;"/><text fill="#000000" font-family="Arial" font-size="14" lengthAdjust="spacing" textLength="140.7656" x="310.81" y="533.3364">startDate: DateOnly</text><ellipse cx="301.81" cy="546.2866" fill="#000000" rx="3" ry="3" style="stroke:#000000;stroke-width:1.0;"/><text fill="#000000" font-family="Arial" font-size="14" lengthAdjust="spacing" textLength="171.459" x="310.81" y="549.6332">startTime: String &#171;time&#187;</text><ellipse cx="301.81" cy="562.5834" fill="#000000" rx="3" ry="3" style="stroke:#000000;stroke-width:1.0;"/><text fill="#000000" font-family="Arial" font-size="14" lengthAdjust="spacing" textLength="163.0713" x="310.81" y="565.9301">duration: String &#171;time&#187;</text><ellipse cx="301.81" cy="578.8803" fill="#000000" rx="3" ry="3" style="stroke:#000000;stroke-width:1.0;"/><text fill="#000000" font-family="Arial" font-size="14" lengthAdjust="spacing" textLength="176.292" x="310.81" y="582.227">appearance: Appearance</text><line style="stroke:#181818;stroke-width:0.5;" x1="291.81" x2="492.102" y1="589.5288" y2="589.5288"/></g><!--class User--><g id="elem_User"><rect codeLine="16" fill="#F1F1F1" height="140.0781" id="User" rx="2.5" ry="2.5" style="stroke:#181818;stroke-width:0.5;" width="183.8555" x="417.03" y="7"/><text fill="#000000" font-family="Arial" font-size="14" lengthAdjust="spacing" textLength="31.9102" x="493.0027" y="24.9951">User</text><line style="stroke:#181818;stroke-width:0.5;" x1="418.03" x2="599.8855" y1="33.2969" y2="33.2969"/><ellipse cx="428.03" cy="46.9453" fill="#000000" rx="3" ry="3" style="stroke:#000000;stroke-width:1.0;"/><text fill="#000000" font-family="Arial" font-size="14" lengthAdjust="spacing" textLength="87.5547" x="437.03" y="50.292">_id: ObjectId</text><ellipse cx="428.03" cy="63.2422" fill="#000000" rx="3" ry="3" style="stroke:#000000;stroke-width:1.0;"/><text fill="#000000" font-family="Arial" font-size="14" lengthAdjust="spacing" textLength="90.6514" x="437.03" y="66.5889">name: String</text><ellipse cx="428.03" cy="79.5391" fill="#000000" rx="3" ry="3" style="stroke:#000000;stroke-width:1.0;"/><text fill="#000000" font-family="Arial" font-size="14" lengthAdjust="spacing" textLength="149.748" x="437.03" y="82.8857">email: String &#171;email&#187;</text><ellipse cx="428.03" cy="95.8359" fill="#000000" rx="3" ry="3" style="stroke:#000000;stroke-width:1.0;"/><text fill="#000000" font-family="Arial" font-size="14" lengthAdjust="spacing" textLength="117.6602" x="437.03" y="99.1826">password: String</text><ellipse cx="428.03" cy="112.1328" fill="#000000" rx="3" ry="3" style="stroke:#000000;stroke-width:1.0;"/><text fill="#000000" font-family="Arial" font-size="14" lengthAdjust="spacing" textLength="66.7871" x="437.03" y="115.4795">role: Role</text><ellipse cx="428.03" cy="128.4297" fill="#000000" rx="3" ry="3" style="stroke:#000000;stroke-width:1.0;"/><text fill="#000000" font-family="Arial" font-size="14" lengthAdjust="spacing" textLength="157.8555" x="437.03" y="131.7764">events: Array&lt;Event&gt;</text><line style="stroke:#181818;stroke-width:0.5;" x1="418.03" x2="599.8855" y1="139.0781" y2="139.0781"/></g><!--class Event--><g id="elem_Event"><rect codeLine="25" fill="#F1F1F1" height="107.4844" id="Event" rx="2.5" ry="2.5" style="stroke:#181818;stroke-width:0.5;" width="228.1523" x="394.88" y="224.08"/><text fill="#000000" font-family="Arial" font-size="14" lengthAdjust="spacing" textLength="40.1064" x="488.9029" y="242.0751">Event</text><line style="stroke:#181818;stroke-width:0.5;" x1="395.88" x2="622.0323" y1="250.3769" y2="250.3769"/><ellipse cx="405.88" cy="264.0253" fill="#000000" rx="3" ry="3" style="stroke:#000000;stroke-width:1.0;"/><text fill="#000000" font-family="Arial" font-size="14" lengthAdjust="spacing" textLength="87.5547" x="414.88" y="267.372">_id: ObjectId</text><ellipse cx="405.88" cy="280.3222" fill="#000000" rx="3" ry="3" style="stroke:#000000;stroke-width:1.0;"/><text fill="#000000" font-family="Arial" font-size="14" lengthAdjust="spacing" textLength="78.3193" x="414.88" y="283.6689">title: String</text><ellipse cx="405.88" cy="296.6191" fill="#000000" rx="3" ry="3" style="stroke:#000000;stroke-width:1.0;"/><text fill="#000000" font-family="Arial" font-size="14" lengthAdjust="spacing" textLength="129.9443" x="414.88" y="299.9657">slots: Array&lt;Slot&gt;</text><ellipse cx="405.88" cy="312.9159" fill="#000000" rx="3" ry="3" style="stroke:#000000;stroke-width:1.0;"/><text fill="#000000" font-family="Arial" font-size="14" lengthAdjust="spacing" textLength="202.1523" x="414.88" y="316.2626">messages: Array&lt;Message&gt;</text><line style="stroke:#181818;stroke-width:0.5;" x1="395.88" x2="622.0323" y1="323.5644" y2="323.5644"/></g><!--class Message--><g id="elem_Message"><rect codeLine="32" fill="#F1F1F1" height="123.7813" id="Message" rx="2.5" ry="2.5" style="stroke:#181818;stroke-width:0.5;" width="193.3232" x="528.29" y="441.15"/><text fill="#000000" font-family="Arial" font-size="14" lengthAdjust="spacing" textLength="61.3594" x="594.2719" y="459.1451">Message</text><line style="stroke:#181818;stroke-width:0.5;" x1="529.29" x2="720.6132" y1="467.4469" y2="467.4469"/><ellipse cx="539.29" cy="481.0953" fill="#000000" rx="3" ry="3" style="stroke:#000000;stroke-width:1.0;"/><text fill="#000000" font-family="Arial" font-size="14" lengthAdjust="spacing" textLength="87.5547" x="548.29" y="484.442">_id: ObjectId</text><ellipse cx="539.29" cy="497.3922" fill="#000000" rx="3" ry="3" style="stroke:#000000;stroke-width:1.0;"/><text fill="#000000" font-family="Arial" font-size="14" lengthAdjust="spacing" textLength="90.6514" x="548.29" y="500.7389">name: String</text><ellipse cx="539.29" cy="513.6891" fill="#000000" rx="3" ry="3" style="stroke:#000000;stroke-width:1.0;"/><text fill="#000000" font-family="Arial" font-size="14" lengthAdjust="spacing" textLength="141.5518" x="548.29" y="517.0357">color: MessageColor</text><ellipse cx="539.29" cy="529.9859" fill="#000000" rx="3" ry="3" style="stroke:#000000;stroke-width:1.0;"/><text fill="#000000" font-family="Arial" font-size="14" lengthAdjust="spacing" textLength="167.3232" x="548.29" y="533.3326">weight: MessageWeight</text><ellipse cx="539.29" cy="546.2828" fill="#000000" rx="3" ry="3" style="stroke:#000000;stroke-width:1.0;"/><text fill="#000000" font-family="Arial" font-size="14" lengthAdjust="spacing" textLength="104.2822" x="548.29" y="549.6295">isCap: Boolean</text><line style="stroke:#181818;stroke-width:0.5;" x1="529.29" x2="720.6132" y1="556.9313" y2="556.9313"/></g><!--class StartType--><g id="elem_StartType"><rect codeLine="40" fill="#F1F1F1" height="74.8906" id="StartType" rx="2.5" ry="2.5" style="stroke:#181818;stroke-width:0.5;" width="98.4883" x="9.71" y="39.59"/><text fill="#000000" font-family="Arial" font-size="14" lengthAdjust="spacing" textLength="68.5371" x="24.6856" y="57.5851">StartType</text><line style="stroke:#181818;stroke-width:0.5;" x1="10.71" x2="107.1983" y1="65.8869" y2="65.8869"/><text fill="#000000" font-family="Arial" font-size="14" lengthAdjust="spacing" textLength="59.7529" x="15.71" y="82.882">MANUAL</text><text fill="#000000" font-family="Arial" font-size="14" lengthAdjust="spacing" textLength="86.4883" x="15.71" y="99.1789">SCHEDULED</text><line style="stroke:#181818;stroke-width:0.5;" x1="10.71" x2="107.1983" y1="106.4806" y2="106.4806"/></g><!--class Appearance--><g id="elem_Appearance"><rect codeLine="45" fill="#F1F1F1" height="74.8906" id="Appearance" rx="2.5" ry="2.5" style="stroke:#181818;stroke-width:0.5;" width="108.1816" x="142.86" y="39.59"/><text fill="#000000" font-family="Arial" font-size="14" lengthAdjust="spacing" textLength="84.0615" x="154.9201" y="57.5851">Appearance</text><line style="stroke:#181818;stroke-width:0.5;" x1="143.86" x2="250.0416" y1="65.8869" y2="65.8869"/><text fill="#000000" font-family="Arial" font-size="14" lengthAdjust="spacing" textLength="96.1816" x="148.86" y="82.882">COUNTDOWN</text><text fill="#000000" font-family="Arial" font-size="14" lengthAdjust="spacing" textLength="68.7559" x="148.86" y="99.1789">COUNTUP</text><line style="stroke:#181818;stroke-width:0.5;" x1="143.86" x2="250.0416" y1="106.4806" y2="106.4806"/></g><!--class Role--><g id="elem_Role"><rect codeLine="50" fill="#F1F1F1" height="74.8906" id="Role" rx="2.5" ry="2.5" style="stroke:#181818;stroke-width:0.5;" width="95.9385" x="285.99" y="39.59"/><text fill="#000000" font-family="Arial" font-size="14" lengthAdjust="spacing" textLength="30.7959" x="318.5613" y="57.5851">Role</text><line style="stroke:#181818;stroke-width:0.5;" x1="286.99" x2="380.9285" y1="65.8869" y2="65.8869"/><text fill="#000000" font-family="Arial" font-size="14" lengthAdjust="spacing" textLength="83.9385" x="291.99" y="82.882">ORGANIZER</text><text fill="#000000" font-family="Arial" font-size="14" lengthAdjust="spacing" textLength="63.5059" x="291.99" y="99.1789">SPEAKER</text><line style="stroke:#181818;stroke-width:0.5;" x1="286.99" x2="380.9285" y1="106.4806" y2="106.4806"/></g><!--class MessageColor--><g id="elem_MessageColor"><rect codeLine="55" fill="#F1F1F1" height="91.1875" id="MessageColor" rx="2.5" ry="2.5" style="stroke:#181818;stroke-width:0.5;" width="103.9111" x="7" y="232.23"/><text fill="#000000" font-family="Arial" font-size="14" lengthAdjust="spacing" textLength="97.9111" x="10" y="250.2251">MessageColor</text><line style="stroke:#181818;stroke-width:0.5;" x1="8" x2="109.9111" y1="258.5269" y2="258.5269"/><text fill="#000000" font-family="Arial" font-size="14" lengthAdjust="spacing" textLength="45.8965" x="13" y="275.522">WHITE</text><text fill="#000000" font-family="Arial" font-size="14" lengthAdjust="spacing" textLength="48.7402" x="13" y="291.8189">GREEN</text><text fill="#000000" font-family="Arial" font-size="14" lengthAdjust="spacing" textLength="29.3535" x="13" y="308.1157">RED</text><line style="stroke:#181818;stroke-width:0.5;" x1="8" x2="109.9111" y1="315.4175" y2="315.4175"/></g><!--class MessageWeight--><g id="elem_MessageWeight"><rect codeLine="61" fill="#F1F1F1" height="74.8906" id="MessageWeight" rx="2.5" ry="2.5" style="stroke:#181818;stroke-width:0.5;" width="116.9541" x="145.48" y="240.37"/><text fill="#000000" font-family="Arial" font-size="14" lengthAdjust="spacing" textLength="110.9541" x="148.48" y="258.3651">MessageWeight</text><line style="stroke:#181818;stroke-width:0.5;" x1="146.48" x2="261.4341" y1="266.6669" y2="266.6669"/><text fill="#000000" font-family="Arial" font-size="14" lengthAdjust="spacing" textLength="60.6758" x="151.48" y="283.662">NORMAL</text><text fill="#000000" font-family="Arial" font-size="14" lengthAdjust="spacing" textLength="39.2041" x="151.48" y="299.9589">BOLD</text><line style="stroke:#181818;stroke-width:0.5;" x1="146.48" x2="261.4341" y1="307.2606" y2="307.2606"/></g><!--link Event to Slot--><g id="link_Event_Slot"><path codeLine="66" d="M477.3676,339.0865 C465.4076,361.9165 460.3381,371.56 446.6981,397.6 " fill="none" id="Event-Slot" style="stroke:#181818;stroke-width:1.0;"/><line style="stroke:#181818;stroke-width:1.0;" x1="475.6806" x2="482.767" y1="333.687" y2="337.3994"/><line style="stroke:#181818;stroke-width:1.0;" x1="474.2884" x2="481.3749" y1="336.3445" y2="340.0569"/><line style="stroke:#181818;stroke-width:1.0;" x1="477.3676" x2="481.08" y1="339.0865" y2="332"/><polygon fill="none" points="441.13,408.23,447.4574,404.771,446.6981,397.6,440.3707,401.059,441.13,408.23" style="stroke:#181818;stroke-width:1.0;"/><text fill="#000000" font-family="Arial" font-size="13" lengthAdjust="spacing" textLength="22.9785" x="465.96" y="374.6269">has</text></g><!--link Event to Message--><g id="link_Event_Message"><path codeLine="67" d="M540.2782,339.0991 C557.2982,371.8591 569.9568,396.2118 587.6868,430.3318 " fill="none" id="Event-Message" style="stroke:#181818;stroke-width:1.0;"/><line style="stroke:#181818;stroke-width:1.0;" x1="534.8846" x2="541.9837" y1="337.3937" y2="333.7054"/><line style="stroke:#181818;stroke-width:1.0;" x1="536.2677" x2="543.3667" y1="340.0558" y2="336.3676"/><line style="stroke:#181818;stroke-width:1.0;" x1="540.2782" x2="536.59" y1="339.0991" y2="332"/><polygon fill="none" points="593.22,440.98,594.0028,433.8115,587.6868,430.3318,586.904,437.5003,593.22,440.98" style="stroke:#181818;stroke-width:1.0;"/><text fill="#000000" font-family="Arial" font-size="13" lengthAdjust="spacing" textLength="22.9785" x="560.96" y="374.6269">has</text></g><!--link User to Event--><g id="link_User_Event"><path codeLine="68" d="M508.96,155.56 C508.96,180.53 508.96,188.27 508.96,211.63 " fill="none" id="User-Event" style="stroke:#181818;stroke-width:1.0;"/><line style="stroke:#181818;stroke-width:1.0;" x1="504.96" x2="512.96" y1="151.56" y2="151.56"/><line style="stroke:#181818;stroke-width:1.0;" x1="504.96" x2="512.96" y1="154.56" y2="154.56"/><line style="stroke:#181818;stroke-width:1.0;" x1="508.96" x2="508.96" y1="155.56" y2="147.56"/><polygon fill="none" points="508.96,223.63,512.96,217.63,508.96,211.63,504.96,217.63,508.96,223.63" style="stroke:#181818;stroke-width:1.0;"/><text fill="#000000" font-family="Arial" font-size="13" lengthAdjust="spacing" textLength="22.9785" x="509.96" y="190.1469">has</text></g><!--SRC=[bLHTQzim57tFhz1RO2o5lPfIS1Cl3MljuYG4LiPGOZNMQab6aXkojVzzqfMio6qAMnuSwPnxTR-lUgAynH8pfFIn8UOhwKvth1cfmCp88-uQ_LLmdMD6K2efRaOZmZNLHxHiX4P_HWXzGZzfbQ1Y-ulizA82n4Wq945ByohV0w9QWf-8761SQAA6KXfBlJgseEkF9sA6jI7ij-3DCLAWB1X3bvVQNA-kWAuwYJKL_3oBM-EKn7ndjDDm7hs66DUAo0zZv9WDGoGCqoQo17TlgiLA7OIi1WfIs2ILvklqdurPauzKIdoypEpjAd86WF_9k2bGUCrMotd2Y59uJm9pv-wn9G_zU-GxqGXJMgytjJV03uJkQns83Lo1eMgAsmHT2nCyvivsnqv51zjtQRvERyrXERt9PklRR1O4J-K2oMcnpbUpOfFtv_Lz4BNv1Q6YdAVvudjMsXVli_IREVL2iUiWlBbPh3BpFo-ppBvQHiO7uO1qNfHtuEbrSGjohbWlBvE9S9EIe1gh0TndsJ7GQevmGWuUZP60rFVpDaR8LKH1-Zy3u8iVGs7UOj0Ft43kpCH5Z1kvgfemDZcQNwm4KrVN2MCE9RnwXvq64C14AOV7epSL7TSpSU3enPtNhHFohPgWyQgcolGCmZqsTX87BBa9nPcDdgymtnFv3lRYKzUkSHgSmXd2gooDNzKvbJF4OuDLdQ2jw-q8W-0IP5feIwJFf92wa9Kjr9UGMztPwTnf-anCIXOSmp5AFJoKwc5INwDcwNV51yr1bUou3UkDbvsoZjXMl70FNKZowEswRV9Ws_32DE2FGOaiu_ivaB4_fuqog6liazyXcvfg6_LS4c8ReYILBuJV9RcG33U6kHQDftRHAdbhsQ_mC3Rz8lC30PiiTiClyHWwxUuOTSkxa7lCwMyxksZfHiw_uvVv0vG2ac8z-mi0]--></g></svg>