<?xml version="1.0" encoding="us-ascii" standalone="no"?><svg xmlns="http://www.w3.org/2000/svg" xmlns:xlink="http://www.w3.org/1999/xlink" contentStyleType="text/css" height="603px" preserveAspectRatio="none" style="width:732px;height:603px;background:#FFFFFF;" version="1.1" viewBox="0 0 732 603" width="732px" zoomAndPan="magnify"><defs/><g><!--class Slot--><g id="elem_Slot"><rect codeLine="5" fill="#F1F1F1" height="188.9688" id="Slot" rx="2.5" ry="2.5" style="stroke:#181818;stroke-width:0.5;" width="200" x="298.5" y="408"/><text fill="#000000" font-family="Arial" font-size="14" lengthAdjust="spacing" textLength="26" x="385.5" y="425.9951">Slot</text><line style="stroke:#181818;stroke-width:0.5;" x1="299.5" x2="497.5" y1="434.2969" y2="434.2969"/><ellipse cx="309.5" cy="447.9453" fill="#000000" rx="3" ry="3" style="stroke:#000000;stroke-width:1.0;"/><text fill="#000000" font-family="Arial" font-size="14" lengthAdjust="spacing" textLength="85" x="318.5" y="451.292">_id: ObjectId</text><ellipse cx="309.5" cy="464.2422" fill="#000000" rx="3" ry="3" style="stroke:#000000;stroke-width:1.0;"/><text fill="#000000" font-family="Arial" font-size="14" lengthAdjust="spacing" textLength="74" x="318.5" y="467.5889">title: String</text><ellipse cx="309.5" cy="480.5391" fill="#000000" rx="3" ry="3" style="stroke:#000000;stroke-width:1.0;"/><text fill="#000000" font-family="Arial" font-size="14" lengthAdjust="spacing" textLength="105" x="318.5" y="483.8857">speaker: String</text><ellipse cx="309.5" cy="496.8359" fill="#000000" rx="3" ry="3" style="stroke:#000000;stroke-width:1.0;"/><text fill="#000000" font-family="Arial" font-size="14" lengthAdjust="spacing" textLength="89" x="318.5" y="500.1826">notes: String</text><ellipse cx="309.5" cy="513.1328" fill="#000000" rx="3" ry="3" style="stroke:#000000;stroke-width:1.0;"/><text fill="#000000" font-family="Arial" font-size="14" lengthAdjust="spacing" textLength="140" x="318.5" y="516.4795">startType: StartType</text><ellipse cx="309.5" cy="529.4297" fill="#000000" rx="3" ry="3" style="stroke:#000000;stroke-width:1.0;"/><text fill="#000000" font-family="Arial" font-size="14" lengthAdjust="spacing" textLength="136" x="318.5" y="532.7764">startDate: DateOnly</text><ellipse cx="309.5" cy="545.7266" fill="#000000" rx="3" ry="3" style="stroke:#000000;stroke-width:1.0;"/><text fill="#000000" font-family="Arial" font-size="14" lengthAdjust="spacing" textLength="166" x="318.5" y="549.0732">startTime: String &#171;time&#187;</text><ellipse cx="309.5" cy="562.0234" fill="#000000" rx="3" ry="3" style="stroke:#000000;stroke-width:1.0;"/><text fill="#000000" font-family="Arial" font-size="14" lengthAdjust="spacing" textLength="158" x="318.5" y="565.3701">duration: String &#171;time&#187;</text><ellipse cx="309.5" cy="578.3203" fill="#000000" rx="3" ry="3" style="stroke:#000000;stroke-width:1.0;"/><text fill="#000000" font-family="Arial" font-size="14" lengthAdjust="spacing" textLength="174" x="318.5" y="581.667">appearance: Appearance</text><line style="stroke:#181818;stroke-width:0.5;" x1="299.5" x2="497.5" y1="588.9688" y2="588.9688"/></g><!--class User--><g id="elem_User"><rect codeLine="17" fill="#F1F1F1" height="140.0781" id="User" rx="2.5" ry="2.5" style="stroke:#181818;stroke-width:0.5;" width="197" x="416" y="7"/><text fill="#000000" font-family="Arial" font-size="14" lengthAdjust="spacing" textLength="32" x="498.5" y="24.9951">User</text><line style="stroke:#181818;stroke-width:0.5;" x1="417" x2="612" y1="33.2969" y2="33.2969"/><ellipse cx="427" cy="46.9453" fill="#000000" rx="3" ry="3" style="stroke:#000000;stroke-width:1.0;"/><text fill="#000000" font-family="Arial" font-size="14" lengthAdjust="spacing" textLength="85" x="436" y="50.292">_id: ObjectId</text><ellipse cx="427" cy="63.2422" fill="#000000" rx="3" ry="3" style="stroke:#000000;stroke-width:1.0;"/><text fill="#000000" font-family="Arial" font-size="14" lengthAdjust="spacing" textLength="88" x="436" y="66.5889">name: String</text><ellipse cx="427" cy="79.5391" fill="#000000" rx="3" ry="3" style="stroke:#000000;stroke-width:1.0;"/><text fill="#000000" font-family="Arial" font-size="14" lengthAdjust="spacing" textLength="143" x="436" y="82.8857">email: String &#171;email&#187;</text><ellipse cx="427" cy="95.8359" fill="#000000" rx="3" ry="3" style="stroke:#000000;stroke-width:1.0;"/><text fill="#000000" font-family="Arial" font-size="14" lengthAdjust="spacing" textLength="116" x="436" y="99.1826">password: String</text><ellipse cx="427" cy="112.1328" fill="#000000" rx="3" ry="3" style="stroke:#000000;stroke-width:1.0;"/><text fill="#000000" font-family="Arial" font-size="14" lengthAdjust="spacing" textLength="66" x="436" y="115.4795">role: Role</text><ellipse cx="427" cy="128.4297" fill="#000000" rx="3" ry="3" style="stroke:#000000;stroke-width:1.0;"/><text fill="#000000" font-family="Arial" font-size="14" lengthAdjust="spacing" textLength="171" x="436" y="131.7764">events: Array&lt;ObjectId&gt;</text><line style="stroke:#181818;stroke-width:0.5;" x1="417" x2="612" y1="139.0781" y2="139.0781"/></g><!--class Event--><g id="elem_Event"><rect codeLine="26" fill="#F1F1F1" height="107.4844" id="Event" rx="2.5" ry="2.5" style="stroke:#181818;stroke-width:0.5;" width="222" x="403.5" y="224"/><text fill="#000000" font-family="Arial" font-size="14" lengthAdjust="spacing" textLength="39" x="495" y="241.9951">Event</text><line style="stroke:#181818;stroke-width:0.5;" x1="404.5" x2="624.5" y1="250.2969" y2="250.2969"/><ellipse cx="414.5" cy="263.9453" fill="#000000" rx="3" ry="3" style="stroke:#000000;stroke-width:1.0;"/><text fill="#000000" font-family="Arial" font-size="14" lengthAdjust="spacing" textLength="85" x="423.5" y="267.292">_id: ObjectId</text><ellipse cx="414.5" cy="280.2422" fill="#000000" rx="3" ry="3" style="stroke:#000000;stroke-width:1.0;"/><text fill="#000000" font-family="Arial" font-size="14" lengthAdjust="spacing" textLength="74" x="423.5" y="283.5889">title: String</text><ellipse cx="414.5" cy="296.5391" fill="#000000" rx="3" ry="3" style="stroke:#000000;stroke-width:1.0;"/><text fill="#000000" font-family="Arial" font-size="14" lengthAdjust="spacing" textLength="157" x="423.5" y="299.8857">slots: Array&lt;ObjectId&gt;</text><ellipse cx="414.5" cy="312.8359" fill="#000000" rx="3" ry="3" style="stroke:#000000;stroke-width:1.0;"/><text fill="#000000" font-family="Arial" font-size="14" lengthAdjust="spacing" textLength="196" x="423.5" y="316.1826">messages: Array&lt;ObjectId&gt;</text><line style="stroke:#181818;stroke-width:0.5;" x1="404.5" x2="624.5" y1="323.4844" y2="323.4844"/></g><!--class Message--><g id="elem_Message"><rect codeLine="33" fill="#F1F1F1" height="123.7813" id="Message" rx="2.5" ry="2.5" style="stroke:#181818;stroke-width:0.5;" width="192" x="533.5" y="440.5"/><text fill="#000000" font-family="Arial" font-size="14" lengthAdjust="spacing" textLength="63" x="598" y="458.4951">Message</text><line style="stroke:#181818;stroke-width:0.5;" x1="534.5" x2="724.5" y1="466.7969" y2="466.7969"/><ellipse cx="544.5" cy="480.4453" fill="#000000" rx="3" ry="3" style="stroke:#000000;stroke-width:1.0;"/><text fill="#000000" font-family="Arial" font-size="14" lengthAdjust="spacing" textLength="85" x="553.5" y="483.792">_id: ObjectId</text><ellipse cx="544.5" cy="496.7422" fill="#000000" rx="3" ry="3" style="stroke:#000000;stroke-width:1.0;"/><text fill="#000000" font-family="Arial" font-size="14" lengthAdjust="spacing" textLength="88" x="553.5" y="500.0889">name: String</text><ellipse cx="544.5" cy="513.0391" fill="#000000" rx="3" ry="3" style="stroke:#000000;stroke-width:1.0;"/><text fill="#000000" font-family="Arial" font-size="14" lengthAdjust="spacing" textLength="142" x="553.5" y="516.3857">color: MessageColor</text><ellipse cx="544.5" cy="529.3359" fill="#000000" rx="3" ry="3" style="stroke:#000000;stroke-width:1.0;"/><text fill="#000000" font-family="Arial" font-size="14" lengthAdjust="spacing" textLength="166" x="553.5" y="532.6826">weight: MessageWeight</text><ellipse cx="544.5" cy="545.6328" fill="#000000" rx="3" ry="3" style="stroke:#000000;stroke-width:1.0;"/><text fill="#000000" font-family="Arial" font-size="14" lengthAdjust="spacing" textLength="104" x="553.5" y="548.9795">isCap: Boolean</text><line style="stroke:#181818;stroke-width:0.5;" x1="534.5" x2="724.5" y1="556.2813" y2="556.2813"/></g><!--class StartType--><g id="elem_StartType"><rect codeLine="41" fill="#F1F1F1" height="74.8906" id="StartType" rx="2.5" ry="2.5" style="stroke:#181818;stroke-width:0.5;" width="98" x="10.5" y="39.5"/><text fill="#000000" font-family="Arial" font-size="14" lengthAdjust="spacing" textLength="66" x="26.5" y="57.4951">StartType</text><line style="stroke:#181818;stroke-width:0.5;" x1="11.5" x2="107.5" y1="65.7969" y2="65.7969"/><text fill="#000000" font-family="Arial" font-size="14" lengthAdjust="spacing" textLength="57" x="16.5" y="82.792">MANUAL</text><text fill="#000000" font-family="Arial" font-size="14" lengthAdjust="spacing" textLength="86" x="16.5" y="99.0889">SCHEDULED</text><line style="stroke:#181818;stroke-width:0.5;" x1="11.5" x2="107.5" y1="106.3906" y2="106.3906"/></g><!--class Appearance--><g id="elem_Appearance"><rect codeLine="46" fill="#F1F1F1" height="74.8906" id="Appearance" rx="2.5" ry="2.5" style="stroke:#181818;stroke-width:0.5;" width="107" x="144" y="39.5"/><text fill="#000000" font-family="Arial" font-size="14" lengthAdjust="spacing" textLength="83" x="156" y="57.4951">Appearance</text><line style="stroke:#181818;stroke-width:0.5;" x1="145" x2="250" y1="65.7969" y2="65.7969"/><text fill="#000000" font-family="Arial" font-size="14" lengthAdjust="spacing" textLength="95" x="150" y="82.792">COUNTDOWN</text><text fill="#000000" font-family="Arial" font-size="14" lengthAdjust="spacing" textLength="69" x="150" y="99.0889">COUNTUP</text><line style="stroke:#181818;stroke-width:0.5;" x1="145" x2="250" y1="106.3906" y2="106.3906"/></g><!--class Role--><g id="elem_Role"><rect codeLine="51" fill="#F1F1F1" height="74.8906" id="Role" rx="2.5" ry="2.5" style="stroke:#181818;stroke-width:0.5;" width="95" x="286" y="39.5"/><text fill="#000000" font-family="Arial" font-size="14" lengthAdjust="spacing" textLength="31" x="318" y="57.4951">Role</text><line style="stroke:#181818;stroke-width:0.5;" x1="287" x2="380" y1="65.7969" y2="65.7969"/><text fill="#000000" font-family="Arial" font-size="14" lengthAdjust="spacing" textLength="83" x="292" y="82.792">ORGANIZER</text><text fill="#000000" font-family="Arial" font-size="14" lengthAdjust="spacing" textLength="64" x="292" y="99.0889">SPEAKER</text><line style="stroke:#181818;stroke-width:0.5;" x1="287" x2="380" y1="106.3906" y2="106.3906"/></g><!--class MessageColor--><g id="elem_MessageColor"><rect codeLine="56" fill="#F1F1F1" height="91.1875" id="MessageColor" rx="2.5" ry="2.5" style="stroke:#181818;stroke-width:0.5;" width="105" x="7" y="232"/><text fill="#000000" font-family="Arial" font-size="14" lengthAdjust="spacing" textLength="99" x="10" y="249.9951">MessageColor</text><line style="stroke:#181818;stroke-width:0.5;" x1="8" x2="111" y1="258.2969" y2="258.2969"/><text fill="#000000" font-family="Arial" font-size="14" lengthAdjust="spacing" textLength="44" x="13" y="275.292">WHITE</text><text fill="#000000" font-family="Arial" font-size="14" lengthAdjust="spacing" textLength="49" x="13" y="291.5889">GREEN</text><text fill="#000000" font-family="Arial" font-size="14" lengthAdjust="spacing" textLength="30" x="13" y="307.8857">RED</text><line style="stroke:#181818;stroke-width:0.5;" x1="8" x2="111" y1="315.1875" y2="315.1875"/></g><!--class MessageWeight--><g id="elem_MessageWeight"><rect codeLine="62" fill="#F1F1F1" height="74.8906" id="MessageWeight" rx="2.5" ry="2.5" style="stroke:#181818;stroke-width:0.5;" width="117" x="147" y="240"/><text fill="#000000" font-family="Arial" font-size="14" lengthAdjust="spacing" textLength="111" x="150" y="257.9951">MessageWeight</text><line style="stroke:#181818;stroke-width:0.5;" x1="148" x2="263" y1="266.2969" y2="266.2969"/><text fill="#000000" font-family="Arial" font-size="14" lengthAdjust="spacing" textLength="59" x="153" y="283.292">NORMAL</text><text fill="#000000" font-family="Arial" font-size="14" lengthAdjust="spacing" textLength="39" x="153" y="299.5889">BOLD</text><line style="stroke:#181818;stroke-width:0.5;" x1="148" x2="263" y1="306.8906" y2="306.8906"/></g><!--link Event to Slot--><g id="link_Event_Slot"><path codeLine="67" d="M483.4664,338.1663 C471.5364,361.0863 466.4296,370.9251 452.7796,397.1551 " fill="none" id="Event-Slot" style="stroke:#181818;stroke-width:1.0;"/><line style="stroke:#181818;stroke-width:1.0;" x1="481.765" x2="488.8613" y1="332.7713" y2="336.465"/><line style="stroke:#181818;stroke-width:1.0;" x1="480.3799" x2="487.4762" y1="335.4324" y2="339.1261"/><line style="stroke:#181818;stroke-width:1.0;" x1="483.4664" x2="487.16" y1="338.1663" y2="331.07"/><polygon fill="none" points="447.24,407.8,453.5581,404.3241,452.7796,397.1551,446.4615,400.631,447.24,407.8" style="stroke:#181818;stroke-width:1.0;"/><text fill="#000000" font-family="Arial" font-size="13" lengthAdjust="spacing" textLength="23" x="471.5" y="374.0669">has</text></g><!--link Event to Message--><g id="link_Event_Message"><path codeLine="68" d="M545.2762,338.1805 C562.1362,370.8805 574.7405,395.3044 592.3905,429.5344 " fill="none" id="Event-Message" style="stroke:#181818;stroke-width:1.0;"/><line style="stroke:#181818;stroke-width:1.0;" x1="539.8878" x2="546.9983" y1="336.4583" y2="332.7922"/><line style="stroke:#181818;stroke-width:1.0;" x1="541.2626" x2="548.3731" y1="339.1248" y2="335.4586"/><line style="stroke:#181818;stroke-width:1.0;" x1="545.2762" x2="541.61" y1="338.1805" y2="331.07"/><polygon fill="none" points="597.89,440.2,598.6955,433.034,592.3905,429.5344,591.585,436.7004,597.89,440.2" style="stroke:#181818;stroke-width:1.0;"/><text fill="#000000" font-family="Arial" font-size="13" lengthAdjust="spacing" textLength="23" x="565.5" y="374.0669">has</text></g><!--link User to Event--><g id="link_User_Event"><path codeLine="69" d="M514.5,155.15 C514.5,180.32 514.5,188.35 514.5,211.86 " fill="none" id="User-Event" style="stroke:#181818;stroke-width:1.0;"/><line style="stroke:#181818;stroke-width:1.0;" x1="510.5" x2="518.5" y1="151.15" y2="151.15"/><line style="stroke:#181818;stroke-width:1.0;" x1="510.5" x2="518.5" y1="154.15" y2="154.15"/><line style="stroke:#181818;stroke-width:1.0;" x1="514.5" x2="514.5" y1="155.15" y2="147.15"/><polygon fill="none" points="514.5,223.86,518.5,217.86,514.5,211.86,510.5,217.86,514.5,223.86" style="stroke:#181818;stroke-width:1.0;"/><text fill="#000000" font-family="Arial" font-size="13" lengthAdjust="spacing" textLength="23" x="515.5" y="190.0669">has</text></g><!--SRC=[bLHRQzim57xFhz1RO2o5lPfIS1El3MljuYG4MiOuYTLOgoqPIMx8rlxtIKUo8xVfsFBWIDztRZetzSHu0n9gelIXekOhsLQtTJLIFJEZZz1M-glWEeMQabWog4OZoZNJ1xAeX2Q_HuHy8ZzO4P5iyvDkzRn0n4XKD28BOvNl454DXISg1nWNcggXb0QfbuS6TVtnICn06y9-CruT0WLMzyx8-RasruiBf8jMWcQ2dsQXCK59u5kZ7VVdqMl_nfMYyiCtSgY7JwGri2hmX7VlgW6bza8M0mKfR99oytNwpyQjoKSi9HpEEryNGJo9bVYVf9iQdJ1egPeg1JlwLtUtJkRVCx0LbJ0bzdfJUqDyJzckr3snnYioJ4sXYSYbC4a0xdotzR7uwFisJbVnZJaifjV9R7MJp7h1OzbGSfgjqkKiMwVTUNNNYzeyer2MNyNf_3x9hSMx9FvcJfrG63eAhw_doyJyN-L9OgtcWVF1Sr0wpV9RZFGokq4vLx6Nbyb4k8c9I0bg07TPTWosd2ESa8D7Oo8mzTtSZGbn5L6O_iy8-0u8eNxkGj0Fta3knEG5Z1kzefZKzUHWVg4IJbzPHdNjKCgBTzXn416Cb79uE89JqN8z4tjENjnvrJWXtwiH6IzBfapF4EYmiPFOW-JcASvjOBu0lgFo7Up5fwvTmpGuXHE4LrcOk8fJAYU8nmfK6P6Dw-q0myT5nBJGXagVII5r9WjRg2zzRdLhntEhsJCrAPbpm6EGUZGKws5INuDcwHR61yt1b6ovVTQRA5jb0x6jUEOCdKdwwFswbV9Ws_3CDE3tGOaiu_kv9yDuZXjbKDSm9hz3rYNJzjLNabBR43ajV27yBac5hA4opAMeFBKDLibRptwLzsFJBJ8_4BZ9mZ3yCW-XumuFKRV4Cxa3pdxPsIKBDtBUZb_g3rWAJ0f6zWS0]--></g></svg>